<svg xmlns="http://www.w3.org/2000/svg" xmlns:xlink="http://www.w3.org/1999/xlink" width="500" zoomAndPan="magnify" viewBox="0 0 375.12 97.92" height="120" preserveAspectRatio="xMidYMid meet" version="1.0"><defs><g/><clipPath id="788fb54fa4"><path d="M 2 0.0742188 L 370 0.0742188 L 370 89.863281 L 2 89.863281 Z M 2 0.0742188 " clip-rule="nonzero"/></clipPath><clipPath id="45b0b107ab"><path d="M 317 29 L 367.691406 29 L 367.691406 80 L 317 80 Z M 317 29 " clip-rule="nonzero"/></clipPath><clipPath id="77d1c70cd2"><rect x="0" width="368" y="0" height="90"/></clipPath></defs><g clip-path="url(#788fb54fa4)"><g transform="matrix(1, 0, 0, 1, 2, 0.000000000000003997)"><g clip-path="url(#77d1c70cd2)"><g fill="#2563eb" fill-opacity="1"><g transform="translate(0.460578, 79.256337)"><g><path d="M 13.125 -54.65625 C 10.46875 -54.65625 8.296875 -55.4375 6.609375 -57 C 4.921875 -58.570312 4.078125 -60.515625 4.078125 -62.828125 C 4.078125 -65.191406 4.921875 -67.15625 6.609375 -68.71875 C 8.296875 -70.289062 10.46875 -71.078125 13.125 -71.078125 C 15.726562 -71.078125 17.875 -70.289062 19.5625 -68.71875 C 21.25 -67.15625 22.09375 -65.191406 22.09375 -62.828125 C 22.09375 -60.515625 21.25 -58.570312 19.5625 -57 C 17.875 -55.4375 15.726562 -54.65625 13.125 -54.65625 Z M 20.671875 -49.515625 L 20.671875 0 L 5.5 0 L 5.5 -49.515625 Z M 20.671875 -49.515625 "/></g></g></g><g fill="#2563eb" fill-opacity="1"><g transform="translate(19.093303, 79.256337)"><g><path d="M 35.671875 -50.046875 C 41.472656 -50.046875 46.101562 -48.164062 49.5625 -44.40625 C 53.019531 -40.65625 54.75 -35.492188 54.75 -28.921875 L 54.75 0 L 39.671875 0 L 39.671875 -26.890625 C 39.671875 -30.203125 38.8125 -32.773438 37.09375 -34.609375 C 35.375 -36.441406 33.066406 -37.359375 30.171875 -37.359375 C 27.273438 -37.359375 24.96875 -36.441406 23.25 -34.609375 C 21.53125 -32.773438 20.671875 -30.203125 20.671875 -26.890625 L 20.671875 0 L 5.5 0 L 5.5 -49.515625 L 20.671875 -49.515625 L 20.671875 -42.953125 C 22.210938 -45.140625 24.285156 -46.867188 26.890625 -48.140625 C 29.492188 -49.410156 32.421875 -50.046875 35.671875 -50.046875 Z M 35.671875 -50.046875 "/></g></g></g><g fill="#2563eb" fill-opacity="1"><g transform="translate(71.353662, 79.256337)"><g><path d="M 2.484375 -24.84375 C 2.484375 -29.9375 3.441406 -34.40625 5.359375 -38.25 C 7.285156 -42.09375 9.90625 -45.046875 13.21875 -47.109375 C 16.53125 -49.179688 20.226562 -50.21875 24.3125 -50.21875 C 27.5625 -50.21875 30.53125 -49.535156 33.21875 -48.171875 C 35.914062 -46.816406 38.035156 -44.988281 39.578125 -42.6875 L 39.578125 -65.65625 L 54.75 -65.65625 L 54.75 0 L 39.578125 0 L 39.578125 -7.09375 C 38.160156 -4.726562 36.132812 -2.835938 33.5 -1.421875 C 30.863281 -0.00390625 27.800781 0.703125 24.3125 0.703125 C 20.226562 0.703125 16.53125 -0.34375 13.21875 -2.4375 C 9.90625 -4.539062 7.285156 -7.53125 5.359375 -11.40625 C 3.441406 -15.28125 2.484375 -19.757812 2.484375 -24.84375 Z M 39.578125 -24.75 C 39.578125 -28.539062 38.523438 -31.53125 36.421875 -33.71875 C 34.328125 -35.90625 31.769531 -37 28.75 -37 C 25.726562 -37 23.164062 -35.921875 21.0625 -33.765625 C 18.96875 -31.609375 17.921875 -28.632812 17.921875 -24.84375 C 17.921875 -21.0625 18.96875 -18.0625 21.0625 -15.84375 C 23.164062 -13.625 25.726562 -12.515625 28.75 -12.515625 C 31.769531 -12.515625 34.328125 -13.609375 36.421875 -15.796875 C 38.523438 -17.984375 39.578125 -20.96875 39.578125 -24.75 Z M 39.578125 -24.75 "/></g></g></g><g fill="#2563eb" fill-opacity="1"><g transform="translate(124.057661, 79.256337)"><g><path d="M 52.171875 -25.5625 C 52.171875 -24.132812 52.082031 -22.65625 51.90625 -21.125 L 17.5625 -21.125 C 17.800781 -18.039062 18.789062 -15.6875 20.53125 -14.0625 C 22.28125 -12.4375 24.425781 -11.625 26.96875 -11.625 C 30.757812 -11.625 33.394531 -13.222656 34.875 -16.421875 L 51.015625 -16.421875 C 50.191406 -13.160156 48.695312 -10.226562 46.53125 -7.625 C 44.375 -5.03125 41.671875 -2.992188 38.421875 -1.515625 C 35.171875 -0.0351562 31.53125 0.703125 27.5 0.703125 C 22.65625 0.703125 18.335938 -0.328125 14.546875 -2.390625 C 10.765625 -4.460938 7.804688 -7.421875 5.671875 -11.265625 C 3.546875 -15.109375 2.484375 -19.601562 2.484375 -24.75 C 2.484375 -29.90625 3.53125 -34.40625 5.625 -38.25 C 7.726562 -42.09375 10.671875 -45.046875 14.453125 -47.109375 C 18.242188 -49.179688 22.59375 -50.21875 27.5 -50.21875 C 32.289062 -50.21875 36.550781 -49.210938 40.28125 -47.203125 C 44.007812 -45.191406 46.921875 -42.320312 49.015625 -38.59375 C 51.117188 -34.875 52.171875 -30.53125 52.171875 -25.5625 Z M 36.640625 -29.546875 C 36.640625 -32.148438 35.753906 -34.21875 33.984375 -35.75 C 32.210938 -37.289062 29.992188 -38.0625 27.328125 -38.0625 C 24.785156 -38.0625 22.640625 -37.320312 20.890625 -35.84375 C 19.148438 -34.363281 18.070312 -32.265625 17.65625 -29.546875 Z M 36.640625 -29.546875 "/></g></g></g><g fill="#2563eb" fill-opacity="1"><g transform="translate(171.171831, 79.256337)"><g><path d="M 35.671875 -50.046875 C 41.472656 -50.046875 46.101562 -48.164062 49.5625 -44.40625 C 53.019531 -40.65625 54.75 -35.492188 54.75 -28.921875 L 54.75 0 L 39.671875 0 L 39.671875 -26.890625 C 39.671875 -30.203125 38.8125 -32.773438 37.09375 -34.609375 C 35.375 -36.441406 33.066406 -37.359375 30.171875 -37.359375 C 27.273438 -37.359375 24.96875 -36.441406 23.25 -34.609375 C 21.53125 -32.773438 20.671875 -30.203125 20.671875 -26.890625 L 20.671875 0 L 5.5 0 L 5.5 -49.515625 L 20.671875 -49.515625 L 20.671875 -42.953125 C 22.210938 -45.140625 24.285156 -46.867188 26.890625 -48.140625 C 29.492188 -49.410156 32.421875 -50.046875 35.671875 -50.046875 Z M 35.671875 -50.046875 "/></g></g></g><g fill="#2563eb" fill-opacity="1"><g transform="translate(223.432209, 79.256337)"><g><path d="M 13.125 -54.65625 C 10.46875 -54.65625 8.296875 -55.4375 6.609375 -57 C 4.921875 -58.570312 4.078125 -60.515625 4.078125 -62.828125 C 4.078125 -65.191406 4.921875 -67.15625 6.609375 -68.71875 C 8.296875 -70.289062 10.46875 -71.078125 13.125 -71.078125 C 15.726562 -71.078125 17.875 -70.289062 19.5625 -68.71875 C 21.25 -67.15625 22.09375 -65.191406 22.09375 -62.828125 C 22.09375 -60.515625 21.25 -58.570312 19.5625 -57 C 17.875 -55.4375 15.726562 -54.65625 13.125 -54.65625 Z M 20.671875 -49.515625 L 20.671875 0 L 5.5 0 L 5.5 -49.515625 Z M 20.671875 -49.515625 "/></g></g></g><g fill="#2563eb" fill-opacity="1"><g transform="translate(242.064927, 79.256337)"><g><path d="M 19.703125 -12.515625 L 41.171875 -12.515625 L 41.171875 0 L 2.75 0 L 2.75 -12.0625 L 23.34375 -37 L 2.921875 -37 L 2.921875 -49.515625 L 40.734375 -49.515625 L 40.734375 -37.453125 Z M 19.703125 -12.515625 "/></g></g></g><g fill="#2563eb" fill-opacity="1"><g transform="translate(278.531822, 79.256337)"><g><path d="M 19.703125 -12.515625 L 41.171875 -12.515625 L 41.171875 0 L 2.75 0 L 2.75 -12.0625 L 23.34375 -37 L 2.921875 -37 L 2.921875 -49.515625 L 40.734375 -49.515625 L 40.734375 -37.453125 Z M 19.703125 -12.515625 "/></g></g></g><g clip-path="url(#45b0b107ab)"><g fill="#2563eb" fill-opacity="1"><g transform="translate(314.998741, 79.256337)"><g><path d="M 52.171875 -25.5625 C 52.171875 -24.132812 52.082031 -22.65625 51.90625 -21.125 L 17.5625 -21.125 C 17.800781 -18.039062 18.789062 -15.6875 20.53125 -14.0625 C 22.28125 -12.4375 24.425781 -11.625 26.96875 -11.625 C 30.757812 -11.625 33.394531 -13.222656 34.875 -16.421875 L 51.015625 -16.421875 C 50.191406 -13.160156 48.695312 -10.226562 46.53125 -7.625 C 44.375 -5.03125 41.671875 -2.992188 38.421875 -1.515625 C 35.171875 -0.0351562 31.53125 0.703125 27.5 0.703125 C 22.65625 0.703125 18.335938 -0.328125 14.546875 -2.390625 C 10.765625 -4.460938 7.804688 -7.421875 5.671875 -11.265625 C 3.546875 -15.109375 2.484375 -19.601562 2.484375 -24.75 C 2.484375 -29.90625 3.53125 -34.40625 5.625 -38.25 C 7.726562 -42.09375 10.671875 -45.046875 14.453125 -47.109375 C 18.242188 -49.179688 22.59375 -50.21875 27.5 -50.21875 C 32.289062 -50.21875 36.550781 -49.210938 40.28125 -47.203125 C 44.007812 -45.191406 46.921875 -42.320312 49.015625 -38.59375 C 51.117188 -34.875 52.171875 -30.53125 52.171875 -25.5625 Z M 36.640625 -29.546875 C 36.640625 -32.148438 35.753906 -34.21875 33.984375 -35.75 C 32.210938 -37.289062 29.992188 -38.0625 27.328125 -38.0625 C 24.785156 -38.0625 22.640625 -37.320312 20.890625 -35.84375 C 19.148438 -34.363281 18.070312 -32.265625 17.65625 -29.546875 Z M 36.640625 -29.546875 "/></g></g></g></g></g></g></g></svg>